<svg xmlns="http://www.w3.org/2000/svg" xmlns:xlink="http://www.w3.org/1999/xlink" width="469.336" height="469.334" viewBox="0 0 469.336 469.334"><defs><linearGradient id="a" x1="1.234" y1="0.195" x2="-0.21" y2="0.761" gradientUnits="objectBoundingBox"><stop offset="0" stop-color="#ff0404"/><stop offset="1" stop-color="#ffbf10"/></linearGradient></defs><g transform="translate(0 -0.002)"><path d="M456.836,76.168l-64-64.054c-16.125-16.139-44.177-16.17-60.365.031L45.763,301.682a10.733,10.733,0,0,0-2.688,4.587L.409,455.73a10.677,10.677,0,0,0,13.188,13.2l149.333-42.7a10.714,10.714,0,0,0,4.583-2.69L456.836,136.553a42.713,42.713,0,0,0,0-60.385ZM285.989,89.737,325.253,129l-205,205-14.712-29.434a10.671,10.671,0,0,0-9.542-5.9H78.921ZM26.2,443.137,40.1,394.5l34.742,34.742ZM149.336,407.96,98.3,422.539l-51.5-51.5L61.377,320H89.408l18.385,36.771a10.671,10.671,0,0,0,4.771,4.771l36.771,18.385V407.96Zm21.334-17.543V373.335a10.671,10.671,0,0,0-5.9-9.542L135.34,349.081l205-205L379.6,183.349Zm271.114-268.7-47.033,46.613L301,74.586l46.582-47c8.063-8.063,22.1-8.063,30.167,0l64,64a21.325,21.325,0,0,1,.031,30.135Z" fill="url(#a)"/></g></svg>